<?xml version="1.0" encoding="utf-8"?>
<!-- Generator: Adobe Illustrator 21.0.0, SVG Export Plug-In . SVG Version: 6.00 Build 0)  -->
<svg version="1.1" id="圖層_1" xmlns="http://www.w3.org/2000/svg" xmlns:xlink="http://www.w3.org/1999/xlink" x="0px" y="0px"
	 viewBox="0 0 300 300" style="enable-background:new 0 0 300 300;" xml:space="preserve">
<style type="text/css">
	.st0{fill:#3C7339;}
</style>
<path class="st0" d="M268.1,177.7l-20.7,9.4L180.7,40l20.7-9.4L268.1,177.7z M230.8,39.5L216,46.2l52.8,116.3l14.8-6.7L230.8,39.5z
	 M145.7,152.5c3.8-1.7,5.5-6.3,3.8-10.1c-1.7-3.8-6.3-5.5-10.1-3.8c-3.8,1.7-5.5,6.3-3.8,10.1C137.4,152.5,141.9,154.2,145.7,152.5z
	 M107.5,131.2c-1.7-3.8-6.3-5.5-10.1-3.8c-3.8,1.7-5.5,6.3-3.8,10.1c1.7,3.8,6.3,5.5,10.1,3.8C107.5,139.6,109.2,135,107.5,131.2z
	 M156,78.9c-1.7-3.8-6.3-5.5-10.1-3.8c-3.8,1.7-5.5,6.3-3.8,10.1c1.7,3.8,6.3,5.5,10.1,3.8C156,87.3,157.7,82.7,156,78.9z
	 M101,194.6c-1.7-3.8-6.3-5.5-10.1-3.8c-3.8,1.7-5.5,6.3-3.8,10.1c1.7,3.8,6.3,5.5,10.1,3.8C101.1,203,102.8,198.5,101,194.6z
	 M247.9,208.7L95.7,277.9L10.8,91.3l152.3-69.2L247.9,208.7z M99.8,210.3c6.9-3.1,10-11.3,6.8-18.2c-1.6-3.5-4.5-6-7.9-7.3l4.2-36.9
	c1.1-0.2,2.2-0.5,3.3-1c2.8-1.3,4.9-3.3,6.3-5.8l16.3,5c0.1,1.7,0.5,3.5,1.2,5.1c3.1,6.9,11.3,10,18.2,6.8c6.9-3.1,10-11.3,6.8-18.2
	c-1.5-3.4-4.2-5.8-7.4-7.1l3-37c1.4-0.2,2.7-0.5,4.1-1.1c6.9-3.1,10-11.3,6.8-18.2c-3.1-6.9-11.3-10-18.2-6.8
	c-6.9,3.1-10,11.3-6.8,18.2c1.6,3.6,4.6,6.1,8.1,7.3l-2.9,36.7c-1.6,0.1-3.2,0.5-4.8,1.2c-3.2,1.5-5.6,4-6.9,7l-15.7-4.8
	c0.1-2.2-0.2-4.4-1.2-6.6c-3.1-6.9-11.3-10-18.2-6.8c-6.9,3.1-10,11.3-6.8,18.2c1.7,3.8,5,6.5,8.8,7.5l-4.2,36.5
	c-1.4,0.2-2.9,0.5-4.3,1.2c-6.9,3.1-10,11.3-6.8,18.2S92.8,213.5,99.8,210.3z M116.9,220.7l-4.8-10.6l-22.8,10.4l4.8,10.6
	L116.9,220.7z M147.4,206.9l-18.7-41.2L105.8,176l18.7,41.2L147.4,206.9z M178.1,192.9l-13-28.6l-23,10.5l13,28.6L178.1,192.9z
	 M185.5,189.6l22.8-10.4l-26-57.1l-22.8,10.4L185.5,189.6z"/>
</svg>
