<?xml version="1.0" encoding="utf-8"?>
<!-- Generator: Adobe Illustrator 19.0.0, SVG Export Plug-In . SVG Version: 6.00 Build 0)  -->
<svg version="1.1" xmlns="http://www.w3.org/2000/svg" xmlns:xlink="http://www.w3.org/1999/xlink" x="0px" y="0px"
	 viewBox="-461 239 100 100" enable-background="new -461 239 100 100" xml:space="preserve">
<g id="Layer_1" display="none">
	<path display="inline" opacity="0.17" fill="#EECC33" d="M-400.7,309c7.5-3.9,12.2-11.5,12.2-20c0-12.8-10.8-23.1-23.7-22.5
		c-11.7,0.6-21.2,10.7-21.3,22.4c0,8.5,4.6,16.1,12.2,20c1.7,0.9,2.8,2.8,2.8,4.8c0,0.1,0,0.1,0,0.2h-2.5v10c0,5.5,4.5,10,10,10
		s10-4.5,10-10V314h-2.5v-0.2C-403.5,311.7-402.4,309.9-400.7,309z M-408.5,313.8v0.2h-5c0-0.1,0-0.1,0-0.2c0-3.9-2.1-7.5-5.5-9.3
		c-5.9-3-9.5-9-9.5-15.6c0-9.1,7.4-16.9,16.5-17.4c0.3,0,0.6,0,1,0c9.7,0,17.5,7.9,17.5,17.5c0,6.6-3.6,12.5-9.5,15.5
		C-406.4,306.3-408.5,309.8-408.5,313.8z"/>
	<path display="inline" opacity="0.17" fill="#EECC33" d="M-438.5,289c0-1.4-1.1-2.5-2.5-2.5h-12.5c-1.4,0-2.5,1.1-2.5,2.5
		s1.1,2.5,2.5,2.5h12.5C-439.6,291.5-438.5,290.4-438.5,289z"/>
	<path display="inline" opacity="0.17" fill="#EECC33" d="M-368.5,286.5H-381c-1.4,0-2.5,1.1-2.5,2.5s1.1,2.5,2.5,2.5h12.5
		c1.4,0,2.5-1.1,2.5-2.5S-367.1,286.5-368.5,286.5z"/>
	<path display="inline" opacity="0.17" fill="#EECC33" d="M-397.2,265.2c0.4,0.2,0.8,0.3,1.2,0.3c0.9,0,1.7-0.4,2.2-1.3l6.3-10.8
		c0.7-1.2,0.3-2.7-0.9-3.4c-1.2-0.7-2.7-0.3-3.4,0.9l-6.3,10.8C-398.9,263-398.4,264.5-397.2,265.2z"/>
	<path display="inline" opacity="0.17" fill="#EECC33" d="M-428.2,264.3c0.5,0.8,1.3,1.3,2.2,1.3c0.4,0,0.9-0.1,1.2-0.3
		c1.2-0.7,1.6-2.2,0.9-3.4l-6.3-10.8c-0.7-1.2-2.2-1.6-3.4-0.9c-1.2,0.7-1.6,2.2-0.9,3.4L-428.2,264.3z"/>
	<path display="inline" opacity="0.17" fill="#EECC33" d="M-434.8,302.8c-0.7-1.2-2.2-1.6-3.4-0.9l-10.8,6.3
		c-1.2,0.7-1.6,2.2-0.9,3.4c0.5,0.8,1.3,1.3,2.2,1.3c0.4,0,0.9-0.1,1.2-0.3l10.8-6.3C-434.5,305.5-434.1,303.9-434.8,302.8z"/>
	<path display="inline" opacity="0.17" fill="#EECC33" d="M-387.2,275.3c0.5,0.8,1.3,1.3,2.2,1.3c0.4,0,0.9-0.1,1.2-0.3l10.8-6.3
		c1.2-0.7,1.6-2.2,0.9-3.4c-0.7-1.2-2.2-1.6-3.4-0.9l-10.8,6.3C-387.5,272.5-387.9,274.1-387.2,275.3z"/>
	<path display="inline" opacity="0.17" fill="#EECC33" d="M-449.1,269.9l10.8,6.3c0.4,0.2,0.8,0.3,1.2,0.3c0.9,0,1.7-0.4,2.2-1.3
		c0.7-1.2,0.3-2.7-0.9-3.4l-10.8-6.3c-1.2-0.7-2.7-0.3-3.4,0.9C-450.7,267.7-450.3,269.2-449.1,269.9z"/>
	<path display="inline" opacity="0.17" fill="#EECC33" d="M-372.9,308.1l-10.8-6.3c-1.2-0.7-2.7-0.3-3.4,0.9
		c-0.7,1.2-0.3,2.7,0.9,3.4l10.8,6.3c0.4,0.2,0.8,0.3,1.2,0.3c0.9,0,1.7-0.4,2.2-1.3C-371.3,310.3-371.7,308.8-372.9,308.1z"/>
	<path display="inline" opacity="0.17" fill="#EECC33" d="M-411,261.5c1.4,0,2.5-1.1,2.5-2.5v-12.5c0-1.4-1.1-2.5-2.5-2.5
		s-2.5,1.1-2.5,2.5V259C-413.5,260.4-412.4,261.5-411,261.5z"/>
	<path display="inline" opacity="0.17" fill="#EECC33" d="M-398.5,289c0-1.4-1.1-2.5-2.5-2.5h-7.5V279c0-1.4-1.1-2.5-2.5-2.5
		s-2.5,1.1-2.5,2.5v7.5h-7.5c-1.4,0-2.5,1.1-2.5,2.5s1.1,2.5,2.5,2.5h7.5v7.5c0,1.4,1.1,2.5,2.5,2.5s2.5-1.1,2.5-2.5v-7.5h7.5
		C-399.6,291.5-398.5,290.4-398.5,289z"/>
	<g>
		<text transform="matrix(1 0 0 1 -461 354)" display="inline" font-family="'HelveticaNeue-Bold'" font-size="5px">Created by Arthur Shlain</text>
		<text transform="matrix(1 0 0 1 -461 359)" display="inline" font-family="'HelveticaNeue-Bold'" font-size="5px">from the Noun Project</text>
	</g>
</g>
<g id="Layer_2">
	<path fill="none" stroke="#EECC33" stroke-width="5" stroke-miterlimit="10" d="M-406.7,309.1"/>
	<path fill="none" stroke="#EECC33" stroke-width="5" stroke-linecap="round" stroke-miterlimit="10" d="M-417.9,308.6
		c-7.9-2.7-13.7-10.2-13.7-19.1c0-11.1,9-20.1,20.1-20.1s20.1,9,20.1,20.1c0,9.5-6.8,16.6-15.4,19.6c-3.6,1.4-4.3,3.4-4.3,4.9
		s0,5.2,0,5.2"/>
	<path fill="none" stroke="#EECC33" stroke-width="5" stroke-linecap="round" stroke-miterlimit="10" d="M-417.9,308.6"/>
	<circle display="none" fill="#EECC33" cx="-411.4" cy="325.7" r="9.8"/>
	<path fill="#EECC33" d="M-411,262.3L-411,262.3c-1.4,0-2.5-1.1-2.5-2.5v-13.3c0-1.4,1.1-2.5,2.5-2.5l0,0c1.4,0,2.5,1.1,2.5,2.5
		v13.3C-408.5,261.2-409.6,262.3-411,262.3z"/>
	<path opacity="0.26" fill="#EECC33" d="M-420.2,263.9L-420.2,263.9c-1.3,0.5-2.7-0.2-3.2-1.5l-2.7-7.5c-0.5-1.3,0.2-2.7,1.5-3.2
		l0,0c1.3-0.5,2.7,0.2,3.2,1.5l2.7,7.5C-418.2,262-418.9,263.4-420.2,263.9z"/>
	<path fill="#EECC33" d="M-428.3,268.5L-428.3,268.5c-1.1,0.9-2.6,0.7-3.5-0.3l-10.6-12.6c-0.9-1.1-0.7-2.6,0.3-3.5l0,0
		c1.1-0.9,2.6-0.7,3.5,0.3L-428,265C-427.1,266.1-427.3,267.6-428.3,268.5z"/>
	<path opacity="0.51" fill="#EECC33" d="M-434.4,275.7L-434.4,275.7c-0.7,1.2-2.2,1.6-3.4,0.9l-0.3-0.2c-1.2-0.7-1.6-2.2-0.9-3.4
		l0,0c0.7-1.2,2.2-1.6,3.4-0.9l0.3,0.2C-434.1,272.9-433.7,274.5-434.4,275.7z"/>
	<path fill="#EECC33" d="M-437.6,284.4L-437.6,284.4c-0.2,1.4-1.5,2.3-2.9,2l-13.1-2.3c-1.4-0.2-2.3-1.5-2-2.9v0
		c0.2-1.4,1.5-2.3,2.9-2l13.1,2.3C-438.3,281.8-437.4,283.1-437.6,284.4z"/>
	<path opacity="0.26" fill="#EECC33" d="M-437.6,293.8L-437.6,293.8c0.2,1.4-0.7,2.7-2,2.9l-9.1,1.6c-1.4,0.2-2.7-0.7-2.9-2l0,0
		c-0.2-1.4,0.7-2.7,2-2.9l9.1-1.6C-439.2,291.5-437.9,292.4-437.6,293.8z"/>
	<path opacity="0.51" fill="#EECC33" d="M-434.5,302.6L-434.5,302.6c0.7,1.2,0.3,2.7-0.9,3.4l-4.9,2.8c-1.2,0.7-2.7,0.3-3.4-0.9l0,0
		c-0.7-1.2-0.3-2.7,0.9-3.4l4.9-2.8C-436.7,301-435.1,301.4-434.5,302.6z"/>
	<path fill="#EECC33" d="M-428.5,309.8L-428.5,309.8c1.1,0.9,1.2,2.5,0.3,3.5l-12.6,15c-0.9,1.1-2.5,1.2-3.5,0.3l0,0
		c-1.1-0.9-1.2-2.5-0.3-3.5l12.6-15C-431.1,309-429.5,308.9-428.5,309.8z"/>
	<path fill="#EECC33" d="M-393.9,309.9L-393.9,309.9c1.1-0.9,2.6-0.7,3.5,0.3l9.7,11.5c0.9,1.1,0.7,2.6-0.3,3.5l0,0
		c-1.1,0.9-2.6,0.7-3.5-0.3l-9.7-11.5C-395.1,312.4-394.9,310.8-393.9,309.9z"/>
	<path opacity="0.51" fill="#EECC33" d="M-387.8,302.8L-387.8,302.8c0.7-1.2,2.2-1.6,3.4-0.9l8.8,5.1c1.2,0.7,1.6,2.2,0.9,3.4l0,0
		c-0.7,1.2-2.2,1.6-3.4,0.9l-8.8-5.1C-388.1,305.5-388.5,303.9-387.8,302.8z"/>
	<path fill="#EECC33" d="M-384.6,294L-384.6,294c0.2-1.4,1.5-2.3,2.9-2l13.1,2.3c1.4,0.2,2.3,1.5,2,2.9l0,0c-0.2,1.4-1.5,2.3-2.9,2
		l-13.1-2.3C-383.9,296.6-384.8,295.3-384.6,294z"/>
	<path fill="#EECC33" d="M-384.6,284.6L-384.6,284.6c-0.2-1.4,0.7-2.7,2-2.9l2.1-0.4c1.4-0.2,2.7,0.7,2.9,2l0,0
		c0.2,1.4-0.7,2.7-2,2.9l-2.1,0.4C-383,286.9-384.3,286-384.6,284.6z"/>
	<path opacity="0.51" fill="#EECC33" d="M-387.7,275.8L-387.7,275.8c-0.7-1.2-0.3-2.7,0.9-3.4l6.4-3.7c1.2-0.7,2.7-0.3,3.4,0.9l0,0
		c0.7,1.2,0.3,2.7-0.9,3.4l-6.4,3.7C-385.5,277.4-387,277-387.7,275.8z"/>
	<path fill="#EECC33" d="M-393.7,268.6L-393.7,268.6c-1.1-0.9-1.2-2.5-0.3-3.5l14.7-17.5c0.9-1.1,2.5-1.2,3.5-0.3l0,0
		c1.1,0.9,1.2,2.5,0.3,3.5l-14.7,17.5C-391.1,269.4-392.7,269.5-393.7,268.6z"/>
	<path opacity="0.26" fill="#EECC33" d="M-401.8,263.9L-401.8,263.9c-1.3-0.5-2-1.9-1.5-3.2l3.5-9.5c0.5-1.3,1.9-2,3.2-1.5l0,0
		c1.3,0.5,2,1.9,1.5,3.2l-3.5,9.5C-399.1,263.7-400.5,264.4-401.8,263.9z"/>
	<g>
		<path fill="#EECC33" d="M-411.2,315.9c-0.1,0-0.2,0-0.3,0c0,0-0.1,0-0.1,0C-411.4,315.9-411.3,315.9-411.2,315.9z"/>
		<path fill="#EECC33" d="M-419.2,319.7"/>
		<path fill="#EECC33" d="M-412.5,316c0.1,0,0.2,0,0.3,0C-412.3,315.9-412.4,316-412.5,316z"/>
		<path fill="#EECC33" d="M-413.5,316.1c0.1,0,0.3,0,0.4-0.1C-413.2,316.1-413.4,316.1-413.5,316.1z"/>
	</g>
	<g>
		<rect x="-419.9" y="320.8" fill="#EECC33" width="0" height="0"/>
		<path fill="#EECC33" d="M-403,320.8l-8.5,4.9l-8.5-4.9c-1.1,1.8-1.6,4-1.2,6.4c0.7,4.4,4.3,7.8,8.7,8.3c5.9,0.6,10.8-4,10.8-9.7
			C-401.6,323.9-402.1,322.2-403,320.8z"/>
	</g>
	<rect x="-463" y="235" fill="none" width="120" height="120"/>
	<path fill="none" stroke="#D9D9D9" stroke-width="3" stroke-dasharray="256.5889,0" d="M-419.4,283.9c-3.9,0-5.9,3.1-5.9,6.1
		c0,2.6,1.9,6.1,5.9,6.1c5.9,0,9.7-12.1,15.6-12.1c3.9,0,5.9,3.3,5.9,6.1c0,2.9-1.9,6.1-5.9,6.1C-409.7,296-413.6,283.9-419.4,283.9
		z	">
<animate  fill="freeze" repeatCount="indefinite" dur="1s" restart="always" accumulate="none" attributeName="stroke-dashoffset" additive="replace" from="0" calcMode="linear" to="256.58892822265625" begin="0">
			</animate>
	</path>
</g>
</svg>
