<?xml version="1.0" encoding="utf-8"?>
<svg version="1.1" xmlns="http://www.w3.org/2000/svg" xmlns:xlink="http://www.w3.org/1999/xlink" x="0px" y="0px" viewBox="-461 239 100 100" enable-background="new -461 239 100 100" xml:space="preserve">
<g id="Layer_2">
  <path fill="none" stroke="#EECC33" stroke-width="5" stroke-linecap="round" stroke-miterlimit="10" d="M-417.9,308.6 c-7.9-2.7-13.7-10.2-13.7-19.1c0-11.1,9-20.1,20.1-20.1s20.1,9,20.1,20.1c0,9.5-6.8,16.6-15.4,19.6c-3.6,1.4-4.3,3.4-4.3,4.9 s0,5.2,0,5.2"/>
  <g>
    <path fill="#EECC33" d="M-411,262.3L-411,262.3c-1.4,0-2.5-1.1-2.5-2.5v-13.3c0-1.4,1.1-2.5,2.5-2.5l0,0c1.4,0,2.5,1.1,2.5,2.5 v13.3C-408.5,261.2-409.6,262.3-411,262.3z"/>
    <path fill="#EECC33" d="M-428.3,268.5L-428.3,268.5c-1.1,0.9-2.6,0.7-3.5-0.3l-10.6-12.6c-0.9-1.1-0.7-2.6,0.3-3.5l0,0 c1.1-0.9,2.6-0.7,3.5,0.3L-428,265C-427.1,266.1-427.3,267.6-428.3,268.5z"/>
    <path fill="#EECC33" d="M-437.6,284.4L-437.6,284.4c-0.2,1.4-1.5,2.3-2.9,2l-13.1-2.3c-1.4-0.2-2.3-1.5-2-2.9v0 c0.2-1.4,1.5-2.3,2.9-2l13.1,2.3C-438.3,281.8-437.4,283.1-437.6,284.4z"/>
    <path fill="#EECC33" d="M-428.5,309.8L-428.5,309.8c1.1,0.9,1.2,2.5,0.3,3.5l-12.6,15c-0.9,1.1-2.5,1.2-3.5,0.3l0,0 c-1.1-0.9-1.2-2.5-0.3-3.5l12.6-15C-431.1,309-429.5,308.9-428.5,309.8z"/>
    <path fill="#EECC33" d="M-393.9,309.9L-393.9,309.9c1.1-0.9,2.6-0.7,3.5,0.3l9.7,11.5c0.9,1.1,0.7,2.6-0.3,3.5l0,0 c-1.1,0.9-2.6,0.7-3.5-0.3l-9.7-11.5C-395.1,312.4-394.9,310.8-393.9,309.9z"/>
    <path fill="#EECC33" d="M-384.6,294L-384.6,294c0.2-1.4,1.5-2.3,2.9-2l13.1,2.3c1.4,0.2,2.3,1.5,2,2.9l0,0c-0.2,1.4-1.5,2.3-2.9,2 l-13.1-2.3C-383.9,296.6-384.8,295.3-384.6,294z"/>
    <path fill="#EECC33" d="M-384.6,284.6L-384.6,284.6c-0.2-1.4,0.7-2.7,2-2.9l2.1-0.4c1.4-0.2,2.7,0.7,2.9,2l0,0 c0.2,1.4-0.7,2.7-2,2.9l-2.1,0.4C-383,286.9-384.3,286-384.6,284.6z"/>
    <path fill="#EECC33" d="M-393.7,268.6L-393.7,268.6c-1.1-0.9-1.2-2.5-0.3-3.5l14.7-17.5c0.9-1.1,2.5-1.2,3.5-0.3l0,0 c1.1,0.9,1.2,2.5,0.3,3.5l-14.7,17.5C-391.1,269.4-392.7,269.5-393.7,268.6z"/>
    <animate attributeName="opacity" values="1;0.3;1" keyTimes="0;0.5;1" begin="0" dur="2s" repeatCount="indefinite"/>
  </g>
  <g>
    <path opacity="0.51" fill="#EECC33" d="M-434.4,275.7L-434.4,275.7c-0.7,1.2-2.2,1.6-3.4,0.9l-0.3-0.2c-1.2-0.7-1.6-2.2-0.9-3.4 l0,0c0.7-1.2,2.2-1.6,3.4-0.9l0.3,0.2C-434.1,272.9-433.7,274.5-434.4,275.7z"/>
    <path opacity="0.51" fill="#EECC33" d="M-434.5,302.6L-434.5,302.6c0.7,1.2,0.3,2.7-0.9,3.4l-4.9,2.8c-1.2,0.7-2.7,0.3-3.4-0.9l0,0 c-0.7-1.2-0.3-2.7,0.9-3.4l4.9-2.8C-436.7,301-435.1,301.4-434.5,302.6z"/>
    <path opacity="0.51" fill="#EECC33" d="M-387.8,302.8L-387.8,302.8c0.7-1.2,2.2-1.6,3.4-0.9l8.8,5.1c1.2,0.7,1.6,2.2,0.9,3.4l0,0 c-0.7,1.2-2.2,1.6-3.4,0.9l-8.8-5.1C-388.1,305.5-388.5,303.9-387.8,302.8z"/>
    <path opacity="0.51" fill="#EECC33" d="M-387.7,275.8L-387.7,275.8c-0.7-1.2-0.3-2.7,0.9-3.4l6.4-3.7c1.2-0.7,2.7-0.3,3.4,0.9l0,0 c0.7,1.2,0.3,2.7-0.9,3.4l-6.4,3.7C-385.5,277.4-387,277-387.7,275.8z"/>
    <animate attributeName="opacity" values="0.41;0.9;0.1;0.41" keyTimes="0;0.33;0.66;1" begin="0" dur="1.4s" repeatCount="indefinite"/>
  </g>
  <g>
    <path opacity="0.26" fill="#EECC33" d="M-420.2,263.9L-420.2,263.9c-1.3,0.5-2.7-0.2-3.2-1.5l-2.7-7.5c-0.5-1.3,0.2-2.7,1.5-3.2 l0,0c1.3-0.5,2.7,0.2,3.2,1.5l2.7,7.5C-418.2,262-418.9,263.4-420.2,263.9z"/>
    <path opacity="0.26" fill="#EECC33" d="M-437.6,293.8L-437.6,293.8c0.2,1.4-0.7,2.7-2,2.9l-9.1,1.6c-1.4,0.2-2.7-0.7-2.9-2l0,0 c-0.2-1.4,0.7-2.7,2-2.9l9.1-1.6C-439.2,291.5-437.9,292.4-437.6,293.8z"/>
    <path opacity="0.26" fill="#EECC33" d="M-401.8,263.9L-401.8,263.9c-1.3-0.5-2-1.9-1.5-3.2l3.5-9.5c0.5-1.3,1.9-2,3.2-1.5l0,0 c1.3,0.5,2,1.9,1.5,3.2l-3.5,9.5C-399.1,263.7-400.5,264.4-401.8,263.9z"/>
    <animate attributeName="opacity" values="0.26;0.4;0.9;0.26" keyTimes="0;0.33;0.66;1" begin="0" dur="0.9s" repeatCount="indefinite"/>
  </g>
  <path fill="#EECC33" d="M-403,320.8l-8.5,4.9l-8.5-4.9c-1.1,1.8-1.6,4-1.2,6.4c0.7,4.4,4.3,7.8,8.7,8.3c5.9,0.6,10.8-4,10.8-9.7 C-401.6,323.9-402.1,322.2-403,320.8z"/>
  <path fill="none" stroke="#D9D9D9" stroke-width="3" stroke-dasharray="65 1" d="M-419.4,283.9c-3.9,0-5.9,3.1-5.9,6.1 c0,2.6,1.9,6.1,5.9,6.1c5.9,0,9.7-12.1,15.6-12.1c3.9,0,5.9,3.3,5.9,6.1c0,2.9-1.9,6.1-5.9,6.1C-409.7,296-413.6,283.9-419.4,283.9 z"><animate attributeName="stroke-dasharray" values="0 0 68 10;0 10 68 0;68 10 68 0" keyTimes="0;0.15;1" begin="0" dur="1s" repeatCount="indefinite"/></path>
</g>
</svg>
