<?xml version="1.0" encoding="utf-8"?>
<!-- Generator: Adobe Illustrator 19.0.0, SVG Export Plug-In . SVG Version: 6.00 Build 0)  -->
<svg version="1.1" xmlns="http://www.w3.org/2000/svg" xmlns:xlink="http://www.w3.org/1999/xlink" x="0px" y="0px"
	 viewBox="-442 219 139 139" enable-background="new -442 219 139 139" xml:space="preserve">
<g id="Layer_1" display="none" opacity="0.14">
	<path display="inline" fill="#6666FF" d="M-332.1,279c0.4-2.4,0.7-5,0.7-7.5c0-23.3-18.4-42.3-41.1-42.3c-22.7,0-41.1,19-41.1,42.3
		c0,2.6,0.2,5.1,0.7,7.5c-3.6,2.3-5.9,6.3-5.9,10.8v41.4c0,7.1,5.7,12.8,12.8,12.8h67.1c7.1,0,12.8-5.7,12.8-12.8h0v-41.4
		C-326.1,285.2-328.5,281.3-332.1,279z M-366.8,315.1v9c0,3.1-2.5,5.7-5.7,5.7c-3.1,0-5.7-2.5-5.7-5.7v-9c-3.6-2-6.1-5.9-6.1-10.3
		c0-6.5,5.3-11.8,11.8-11.8s11.8,5.3,11.8,11.8C-360.7,309.3-363.2,313.1-366.8,315.1z M-347,277H-398c-0.3-1.8-0.5-3.6-0.5-5.5
		c0-15,11.7-27.2,26-27.2c14.3,0,26,12.2,26,27.2C-346.5,273.4-346.7,275.2-347,277z"/>
	<text transform="matrix(1 0 0 1 -442 373)" enable-background="new    " font-family="'HelveticaNeue-Bold'" font-size="5px">Created by Nut Chanut</text>
	<text transform="matrix(1 0 0 1 -442 378)" enable-background="new    " font-family="'HelveticaNeue-Bold'" font-size="5px">from the Noun Project</text>
</g>
<g id="Layer_2">
	<path id="XMLID_2_" display="none" fill="none" stroke="#6666FF" stroke-width="15" stroke-miterlimit="10" d="M-402.6,285
		c0,0,0-10.1,0-16c0-16.4,13.3-29.7,29.7-29.7s29.7,13.3,29.7,29.7c0,5.1,0,14,0,14"/>
	<path id="XMLID_7_" fill="#6666FF" d="M-418.9,277v47.3c0,10.9,8.9,19.8,19.8,19.8h53.3c10.8,0,19.6-8.8,19.6-19.6V277H-418.9z
		 M-366.7,318v9.1c0,2.7-2.2,4.9-4.9,4.9h-3.6c-2.7,0-4.9-2.2-4.9-4.9v-9.4c-4.5-2.5-7.6-7.3-7.6-12.8c0-8.1,6.5-14.6,14.6-14.6
		c8.1,0,14.6,6.5,14.6,14.6C-358.6,310.6-361.9,315.6-366.7,318z"/>
	<path id="XMLID_5_" display="none" fill="#6666FF" d="M-335.7,269h-15c0-12.2-10-22.2-22.2-22.2s-22.2,10-22.2,22.2h-15
		c0-20.5,16.7-37.2,37.2-37.2C-352.4,231.8-335.7,248.5-335.7,269z"/>
	<rect id="XMLID_1_" x="-421.1" y="225.8" display="none" opacity="0.23" fill="#6666FF" width="93.8" height="46.3"/>
	<path id="XMLID_9_" fill="#6666FF" d="M-336.2,268l-2.2,0l-8.2,0c0,0,0,0,0,0l-4,0.1c0,0.4,0,8.4,0,8.6v2h14.4v-2
		C-336.2,276.6-336.2,268.2-336.2,268z"/>
	<path id="XMLID_18_" fill="#4AFFC8" d="M-370.7,231.3c-7.8-0.5-15.4,1.5-22.1,5.8l-1.7,1.1l7.7,12.4l1.7-1.1
		c4-2.6,8.6-3.8,13.4-3.5l2,0.1l0.9-14.6L-370.7,231.3z"/>
	<path id="XMLID_11_" fill="#00B1F4" d="M-353.3,237.1c-5.2-3.4-11.3-5.4-17.4-5.8l-2-0.1l-0.9,14.6l2,0.1c3.7,0.2,7.4,1.4,10.6,3.5
		l1.7,1.1l7.7-12.4L-353.3,237.1z"/>
	<path id="XMLID_14_" fill="#6666FF" d="M-395.4,268.1l-2,0v0h0l-2,0c0,0,0,0,0,0l-8.4,0l-2,0c0,0.2,0,8.6,0,8.7v2h14.4v-2
		C-395.4,276.4-395.4,268.4-395.4,268.1z"/>
	<path id="XMLID_47_" fill="#6A99FF" d="M-391.1,236l-1.7,1.1c-10.5,6.8-16.9,18.3-17.1,30.9l2,0c0,0,0,0,0,0h0l2,0c0,0,0,0,0,0
		l8.4,0l2,0c0.2-7.6,4.1-14.6,10.4-18.7l1.7-1.1L-391.1,236z"/>
	<path id="XMLID_17_" fill="#432AFF" d="M-343.3,246.7c-2.7-3.8-6.1-7.1-10.1-9.6l-1.7-1.1l-7.7,12.4l1.7,1.1
		c2.4,1.5,4.5,3.5,6.1,5.8l1.2,1.7l11.7-8.6L-343.3,246.7z"/>
	<path id="XMLID_8_" fill="#1F30FF" d="M-336.5,264c-0.4-3.1-1.2-6.2-2.3-9.1l-0.7-1.9l-13.4,5.4l0.7,1.8c0.7,1.8,1.2,3.6,1.4,5.5
		l0.2,2l14.3-1.8L-336.5,264z"/>
	<path id="XMLID_10_" fill="#7B55FF" d="M-338.8,254.9c-1.1-2.9-2.6-5.7-4.4-8.2l-1.2-1.7l-11.7,8.6l1.1,1.6c1.1,1.5,2,3.2,2.7,5
		l0.7,1.9l13.4-5.4L-338.8,254.9z"/>
	<path id="XMLID_13_" fill="#00A2DF" d="M-336.2,268c0-1.3-0.1-2.7-0.3-4l-0.2-2l-14.3,1.8l0.2,2c0.1,0.8,0.2,1.5,0.2,2.3l2,0
		c0,0,0,0,0,0l8.4,0c0,0,0,0,0,0L-336.2,268z"/>
	
		<rect id="XMLID_15_" x="-409.9" y="272.9" display="none" fill="#6666FF" stroke="#6666FF" stroke-miterlimit="10" width="14.6" height="33.3"/>
	
		<rect id="XMLID_16_" x="-350.8" y="273.6" display="none" fill="#6666FF" stroke="#6666FF" stroke-miterlimit="10" width="14.5" height="33.3"/>
</g>
</svg>
