<?xml version="1.0" encoding="utf-8"?>
<!-- Generator: Adobe Illustrator 19.0.0, SVG Export Plug-In . SVG Version: 6.00 Build 0)  -->
<svg version="1.1" id="Layer_1" xmlns="http://www.w3.org/2000/svg" xmlns:xlink="http://www.w3.org/1999/xlink" x="0px" y="0px"
	 viewBox="0 0 80 80" enable-background="new 0 0 80 80" xml:space="preserve">
<g>
	<path fill="#C59C6D" stroke="#010101" stroke-width="4" stroke-miterlimit="10" d="M75.5,54.6c-0.4-3-1.2-5.8-2.3-8.5
		c-1-2.5-3.9-3.5-6.2-2.2L40.2,59.5c-0.1,0.1-0.1,0.2,0,0.2h31C73.9,59.7,75.9,57.3,75.5,54.6z"/>
</g>
<g>
	<path fill="#8DC641" stroke="#010101" stroke-width="4" stroke-miterlimit="10" d="M39.9,14.7c-6.5,0-12.7,1.4-18.2,3.9
		c-2.4,1.1-3.3,4-2,6.2l20,34.6c0.1,0.1,0.2,0.1,0.2-0.1V14.7z"/>
</g>
<path fill="#FFFFFF" stroke="#010101" stroke-width="4" stroke-miterlimit="10" d="M39.9,32.7c-14.9,0-27,12.1-27,27h54
	C66.9,44.8,54.8,32.7,39.9,32.7z"/>
<g>
	<path fill="#FFFFFF" stroke="#010101" stroke-width="4" stroke-miterlimit="10" d="M67,59.7c0-4.9-1.3-9.5-3.6-13.5L40.2,59.5
		c-0.1,0,0,0.1,0,0.1H67z"/>
</g>
<g>
	<path fill="#ED237A" stroke="#010101" stroke-width="4" stroke-miterlimit="10" d="M61.2,12.7c-5.3-2.4-10.9-3.9-16.5-4.4
		c-2.6-0.3-4.9,1.9-4.9,4.5l0,46.4c0,0.1,0.2,0.2,0.3,0.1l23.2-40.2C64.6,16.8,63.7,13.8,61.2,12.7z"/>
</g>
<g>
	<path fill="#2AAAE2" stroke="#010101" stroke-width="4" stroke-miterlimit="10" d="M7.2,44.5C5.4,48.3,4.4,52.4,4,56.4
		c-0.2,1.7,1.2,3.3,2.9,3.3l32.5,0c0.1,0,0.1-0.1,0-0.2L11.3,43.2C9.9,42.4,7.9,42.9,7.2,44.5z"/>
</g>
<path fill="#010101" d="M22.2,66.7c0,0.4-0.1,0.8-0.2,1.2s-0.4,0.7-0.7,1c-0.4,0.4-0.9,0.6-1.4,0.8S18.7,70,18,70h-1.7v2.5
	c0,0.3-0.2,0.5-0.5,0.5h-1.7c-0.3,0-0.5-0.2-0.5-0.5v-8.1c0-0.3,0.2-0.5,0.5-0.5h3.9c0.7,0,1.2,0.1,1.7,0.2c0.5,0.1,0.8,0.3,1.2,0.5
	c0.4,0.2,0.7,0.5,1,0.9C22.1,65.7,22.2,66.2,22.2,66.7z M19.4,66.7c0-0.3-0.1-0.5-0.2-0.7c-0.2-0.2-0.3-0.3-0.5-0.4
	c-0.3-0.1-0.5-0.2-0.8-0.2c-0.3,0-0.6,0-1.1,0h-0.5v2.7h0.8c0.5,0,0.8,0,1.1-0.1c0.3,0,0.5-0.1,0.7-0.3c0.2-0.1,0.3-0.3,0.4-0.5
	C19.4,67.2,19.4,67,19.4,66.7z"/>
<path fill="#010101" d="M26,72.9h-1.6c-0.2,0-0.4-0.2-0.4-0.4V66c0-0.2,0.2-0.4,0.4-0.4H26c0.2,0,0.4,0.2,0.4,0.4v6.5
	C26.4,72.7,26.2,72.9,26,72.9z"/>
<path fill="#010101" d="M36.5,69.5c0,1.1-0.1,2-0.9,2.6c-0.7,0.7-1.8,1-3.1,1s-2.4-0.3-3.1-1c-0.7-0.7-1-1.6-1-2.7
	c0-1.1,0.2-2,1-2.6s1.8-1,3.1-1c1.4,0,2.4,0.3,3.1,1C36.4,67.5,36.5,68.4,36.5,69.5z M33.7,71.2c0.2-0.2,0.3-0.4,0.4-0.6
	c0.1-0.2,0.1-0.6,0.1-1c0-0.4,0-0.7-0.1-1c-0.1-0.3-0.2-0.5-0.3-0.7c-0.1-0.2-0.3-0.3-0.5-0.4s-0.4-0.1-0.7-0.1s-0.5,0-0.6,0.1
	s-0.4,0.2-0.5,0.3c-0.2,0.2-0.3,0.4-0.4,0.7c-0.1,0.3-0.1,0.6-0.1,1c0,0.4,0,0.7,0.1,1c0.1,0.3,0.2,0.5,0.3,0.7
	c0.1,0.2,0.3,0.3,0.5,0.3c0.2,0.1,0.4,0.1,0.7,0.1c0.2,0,0.4,0,0.6-0.1C33.3,71.4,33.5,71.3,33.7,71.2z"/>
<path fill="#010101" d="M43.1,70.9v1.8c-0.3,0.1-0.4,0.2-0.7,0.2c-0.3,0.1-0.5,0.1-0.9,0.1c-1,0-1.5-0.2-2-0.6
	c-0.5-0.3-0.5-0.9-0.5-1.8l0-2.3c0-0.2-0.2-0.4-0.4-0.4l-0.9,0c-0.2,0-0.4-0.2-0.4-0.4v-0.8c0-0.2,0.2-0.4,0.4-0.4l0.9,0
	c0.2,0,0.4-0.2,0.4-0.4l0-1.2c0-0.2,0.2-0.4,0.4-0.4l1.4,0c0.2,0,0.4,0.2,0.4,0.4v1.2c0,0.2,0.2,0.4,0.4,0.4l1.4,0
	c0.2,0,0.4,0.2,0.4,0.4l0,0.8c0,0.2-0.2,0.4-0.4,0.4l-1.4,0c-0.2,0-0.4,0.2-0.4,0.4l0,1.6c0,0.2,0,0.5,0,0.6c0,0.2,0,0.5,0.1,0.6
	c0.1,0.1,0.4,0.2,0.6,0.2c0.2,0,0.4,0,0.7-0.1C42.8,71.2,42.9,71.1,43.1,70.9L43.1,70.9z"/>
<path fill="#010101" d="M54.9,68.4c0,0.9-0.2,1.6-0.7,2.3c-0.4,0.7-1,1.2-1.7,1.5c-0.5,0.3-1.1,0.5-1.7,0.6
	c-0.6,0.1-1.3,0.2-2.1,0.2h-3.1c-0.3,0-0.5-0.2-0.5-0.5v-8.1c0-0.3,0.2-0.5,0.5-0.5h3.2c0.8,0,1.6,0.1,2.2,0.2
	c0.6,0.1,1.1,0.3,1.5,0.5c0.7,0.4,1.3,0.9,1.7,1.6S54.9,67.5,54.9,68.4z M52.1,68.4c0-0.6-0.1-1.1-0.4-1.5s-0.6-0.8-1.2-1
	c-0.3-0.1-0.6-0.2-0.8-0.2c-0.3,0-0.7-0.1-1.3-0.1h-0.7v5.7h0.7c0.6,0,1.1,0,1.4-0.1c0.3-0.1,0.6-0.1,0.9-0.3c0.5-0.2,0.8-0.6,1.1-1
	C52,69.5,52.1,69,52.1,68.4z"/>
<path fill="#010101" d="M65.7,70.1c0,0.4-0.1,0.8-0.3,1.2s-0.5,0.6-0.8,0.9c-0.4,0.3-0.9,0.5-1.3,0.6s-1.1,0.2-1.9,0.2h-4
	c-0.3,0-0.5-0.2-0.5-0.5v-8.1c0-0.3,0.2-0.5,0.5-0.5h3.5c0.8,0,1.4,0,1.8,0.1c0.4,0,0.8,0.2,1.1,0.3c0.4,0.2,0.7,0.4,0.9,0.7
	c0.2,0.3,0.3,0.6,0.3,1c0,0.4-0.1,0.8-0.4,1.2s-0.6,0.6-1.1,0.8v0c0.7,0.1,1.2,0.4,1.6,0.7S65.7,69.5,65.7,70.1z M62.3,66.4
	c0-0.2,0-0.3-0.1-0.5c-0.1-0.2-0.2-0.3-0.5-0.3c-0.2-0.1-0.4-0.1-0.7-0.1c-0.3,0-0.7,0-1.2,0h-0.2v1.9H60c0.4,0,0.8,0,1.1,0
	s0.5-0.1,0.7-0.1c0.2-0.1,0.4-0.2,0.5-0.4C62.3,66.8,62.3,66.6,62.3,66.4z M62.9,70.1c0-0.3-0.1-0.5-0.2-0.7
	c-0.1-0.2-0.3-0.3-0.6-0.4C61.9,69,61.6,69,61.3,69s-0.7,0-1.1,0h-0.6v2.3h0.2c0.7,0,1.3,0,1.6,0c0.3,0,0.6-0.1,0.9-0.2
	c0.3-0.1,0.5-0.2,0.6-0.4C62.9,70.5,62.9,70.3,62.9,70.1z"/>
</svg>
