<?xml version="1.0" encoding="utf-8"?>
<!-- Generator: Adobe Illustrator 21.0.0, SVG Export Plug-In . SVG Version: 6.00 Build 0)  -->
<svg version="1.1" id="Layer_1" xmlns="http://www.w3.org/2000/svg" xmlns:xlink="http://www.w3.org/1999/xlink" x="0px" y="0px"
	 viewBox="0 0 160 110" style="enable-background:new 0 0 160 110;" xml:space="preserve">
<style type="text/css">
	.st0{fill:#CCCCCC;}
	.st1{fill:#F5E4D0;}
	.st2{fill:#FFFFFF;}
	.st3{fill:none;}
	.st4{font-family:'MyriadPro-Regular';}
	.st5{font-size:12px;}
	.st6{fill:none;stroke:#FF0000;stroke-width:3;stroke-miterlimit:10;}
</style>
<g>
	<path class="st0" d="M140.4,100H19.6c-5.3,0-9.6-4.3-9.6-9.6V19.6c0-5.3,4.3-9.6,9.6-9.6h120.7c5.3,0,9.6,4.3,9.6,9.6v70.7
		C150,95.7,145.7,100,140.4,100z"/>
</g>
<g>
	<rect x="10.5" y="20.5" width="139" height="19"/>
	<path d="M149,21v18H11V21H149 M150,20H10v20h140V20L150,20z"/>
</g>
<g>
	<path class="st1" d="M96.3,70H23.7c-2,0-3.7-1.6-3.7-3.7V53.7c0-2,1.6-3.7,3.7-3.7h72.7c2,0,3.7,1.6,3.7,3.7v12.7
		C100,68.4,98.4,70,96.3,70z"/>
</g>
<g>
	<rect x="100" y="53" class="st2" width="21" height="14"/>
</g>
<rect x="100.8" y="55.5" class="st3" width="20.8" height="9.5"/>
<text transform="matrix(1 0 0 1 100.75 64.0195)" class="st4 st5">123</text>
<ellipse class="st6" cx="110.5" cy="60" rx="16" ry="11.5"/>
</svg>
